<svg xmlns="http://www.w3.org/2000/svg" xmlns:xlink="http://www.w3.org/1999/xlink" viewBox="0 0 518.37 437.86"><defs><style>.cls-1{fill:url(#linear-gradient);}</style><linearGradient id="linear-gradient" x1="259.18" y1="-276.53" x2="259.18" y2="-275.5" gradientUnits="userSpaceOnUse"><stop offset="0" stop-color="#e75480"/><stop offset="1" stop-color="#fc8eac"/></linearGradient></defs><g id="Layer_2" data-name="Layer 2"><g id="Object"><path class="cls-1" d="M358.41,2.76C405.08-2.69,457.5-2.79,492.65,28.4c27.4,24.33,36.21,71.81,10,97.45-14.82,14.52-36.41,18.93-56,25.64s-40.36,18.81-44.8,39.08c-4.6,21,10,40.67,21.23,59,16.82,27.41,27.65,59.64,24.06,91.6-5.84,52.09-54.2,96-106.62,96.7-35.87.51-70.26-17-96.36-41.63C227,380,212.58,360.58,192.67,348c-28.62-18.15-64.22-19.67-97.71-24.85S25.22,306,8.71,276.42c-11.66-20.91-10.8-47.16-2.24-69.52s24.05-41.38,40.77-58.52C132,61.54,240,16.59,358.41,2.76Z"/></g></g></svg>